<svg width="20" height="17" viewBox="0 0 20 17" fill="none" xmlns="http://www.w3.org/2000/svg">
<path d="M2 16.5C1.45 16.5 0.979333 16.3043 0.588 15.913C0.196 15.521 0 15.05 0 14.5V2.5C0 1.95 0.196 1.47933 0.588 1.088C0.979333 0.696 1.45 0.5 2 0.5H18C18.55 0.5 19.021 0.696 19.413 1.088C19.8043 1.47933 20 1.95 20 2.5V14.5C20 15.05 19.8043 15.521 19.413 15.913C19.021 16.3043 18.55 16.5 18 16.5H2ZM10 9.325C10.0833 9.325 10.1707 9.31233 10.262 9.287C10.354 9.26233 10.4417 9.225 10.525 9.175L17.6 4.75C17.7333 4.66667 17.8333 4.56267 17.9 4.438C17.9667 4.31267 18 4.175 18 4.025C18 3.69167 17.8583 3.44167 17.575 3.275C17.2917 3.10833 17 3.11667 16.7 3.3L10 7.5L3.3 3.3C3 3.11667 2.70833 3.11233 2.425 3.287C2.14167 3.46233 2 3.70833 2 4.025C2 4.19167 2.03333 4.33733 2.1 4.462C2.16667 4.58733 2.26667 4.68333 2.4 4.75L9.475 9.175C9.55833 9.225 9.646 9.26233 9.738 9.287C9.82933 9.31233 9.91667 9.325 10 9.325Z" fill="#B292FF"/>
</svg>
